<svg width="78" height="78" viewBox="0 0 78 78" fill="none" xmlns="http://www.w3.org/2000/svg">
<g clip-path="url(#clip0_49_109)" filter="url(#filter0_d_49_109)">
<path d="M29.364 43.713C28.6941 42.5552 27.4471 41.836 26.1097 41.836H21.1584V38.8657C23.493 38.4096 25.3283 36.4293 25.5172 33.9853C25.5608 33.4206 25.1384 32.9276 24.5739 32.8839C24.0056 32.8385 23.5161 33.2627 23.4725 33.8271C23.3387 35.5582 21.872 36.9141 20.133 36.9141C18.286 36.9141 16.7834 35.4115 16.7834 33.5645C16.7834 31.7174 18.286 30.2149 20.133 30.2149C20.7222 30.2149 21.301 30.3696 21.8072 30.6623C22.2974 30.9458 22.9247 30.7784 23.2081 30.2881C23.4917 29.798 23.3242 29.1707 22.8339 28.8872C22.3138 28.5864 21.7466 28.3765 21.1584 28.2631V25.2723C22.5437 24.8358 23.551 23.5393 23.551 22.0117C23.551 20.4819 22.5407 19.1836 21.1521 18.7489L21.1728 16.6178C21.1761 16.2761 21.4179 15.9876 21.7608 15.916C25.4519 15.1461 28.1311 11.8338 28.1311 8.04031C28.1311 3.68472 24.4823 0.00274902 20.1632 -0.00012207C20.1615 -0.00012207 20.1602 -0.00012207 20.1586 -0.00012207C17.0454 1.46484e-05 14.1461 1.97478 12.772 5.03195C12.5398 5.54847 12.7703 6.1555 13.2868 6.38765C13.8035 6.61939 14.4103 6.38943 14.6425 5.87277C15.6864 3.55074 17.8512 2.0508 20.1586 2.0508H20.1619C23.02 2.05271 26.0803 4.45978 26.0803 8.04044C26.0803 10.8681 24.0876 13.336 21.342 13.9087C20.0479 14.1787 19.135 15.2845 19.1221 16.5981L19.1012 18.7535C17.7193 19.1919 16.7151 20.4866 16.7151 22.0117C16.7151 23.5393 17.7224 24.8358 19.1076 25.2723V28.2629C16.6187 28.7435 14.7326 30.9373 14.7326 33.5645C14.7326 36.1917 16.6187 38.3854 19.1076 38.866V41.836H14.1564C12.819 41.836 11.572 42.5552 10.9019 43.713L4.93004 54.0354C4.25834 55.1967 4.25834 56.6395 4.93004 57.8009L10.9021 68.1231C11.572 69.2807 12.819 70 14.1564 70H26.1097C27.4471 70 28.6941 69.2807 29.3641 68.123L35.336 57.8006C36.0077 56.6393 36.0077 55.1965 35.336 54.0351L29.364 43.713ZM20.133 20.6445C20.8869 20.6445 21.5002 21.2579 21.5002 22.0117C21.5002 22.7656 20.8869 23.3789 20.133 23.3789C19.3792 23.3789 18.7658 22.7656 18.7658 22.0117C18.7658 21.2579 19.3792 20.6445 20.133 20.6445ZM33.5607 56.7738L27.589 67.0961C27.2844 67.6223 26.7175 67.9492 26.1097 67.9492H14.1564C13.5485 67.9492 12.9815 67.6222 12.6772 67.0961L6.70534 56.774C6.40004 56.246 6.40004 55.5901 6.70534 55.0621L12.6771 44.7399C12.9817 44.2136 13.5485 43.8867 14.1564 43.8867H26.1097C26.7175 43.8867 27.2845 44.2138 27.5889 44.7399L33.5607 55.062C33.866 55.5901 33.866 56.2458 33.5607 56.7738Z" fill="#333333"/>
<path d="M25.2436 49.4465C24.8176 48.7087 24.0236 48.2502 23.1716 48.2502H17.0939C16.2419 48.2502 15.4479 48.7087 15.0219 49.4465L11.9831 54.7102C11.5571 55.4481 11.5571 56.3649 11.9831 57.1028L12.4634 57.9346C12.7467 58.4251 13.3738 58.5927 13.8641 58.3099C14.3545 58.0267 14.5225 57.3996 14.2394 56.9092L13.7591 56.0774C13.6982 55.972 13.6982 55.841 13.7591 55.7356L16.7979 50.4719C16.8587 50.3665 16.9721 50.301 17.0939 50.301H23.1715C23.2933 50.301 23.4066 50.3665 23.4675 50.4719L26.5063 55.7356C26.5671 55.841 26.5671 55.972 26.5063 56.0774L23.4675 61.3411C23.4066 61.4465 23.2933 61.512 23.1715 61.512H17.0939C16.8367 61.5342 16.7175 61.1811 16.6073 61.0109C16.324 60.5201 15.6969 60.3529 15.2066 60.6353C14.7161 60.9185 14.5481 61.5456 14.8311 62.036L15.0219 62.3665C15.4479 63.1043 16.2419 63.5627 17.0939 63.5627H23.1715C24.0235 63.5627 24.8174 63.1043 25.2434 62.3665L28.2823 57.1028C28.7083 56.3649 28.7083 55.4481 28.2823 54.7102L25.2436 49.4465Z" fill="#333333"/>
<path d="M73.0703 54.0352L71.3313 51.0296C71.0478 50.5393 70.4205 50.372 69.9302 50.6556C69.4401 50.9391 69.2725 51.5664 69.5562 52.0567L71.2951 55.0621C71.6004 55.5901 71.6004 56.246 71.2951 56.774L65.3234 67.0963C65.0188 67.6225 64.4519 67.9494 63.8441 67.9494H51.8907C51.2829 67.9494 50.7159 67.6224 50.4116 67.0963L44.4397 56.7741C44.1344 56.2461 44.1344 55.5903 44.4397 55.0623L50.4115 44.74C50.7161 44.2138 51.2829 43.8869 51.8907 43.8869H63.8441C64.4519 43.8869 65.0189 44.2139 65.3232 44.74L67.1832 47.9551C67.4668 48.4454 68.0941 48.6127 68.5842 48.3292C69.0744 48.0456 69.242 47.4183 68.9583 46.9281L67.0983 43.713C66.4285 42.5552 65.1815 41.836 63.8441 41.836H58.8928V38.866C61.3818 38.3855 63.2678 36.1917 63.2678 33.5645C63.2678 30.9373 61.3818 28.7435 58.8928 28.2629V25.2724C60.278 24.8358 61.2854 23.5393 61.2854 22.0117C61.2854 20.4819 60.275 19.1836 58.8865 18.749L58.9072 16.6178C58.9104 16.2761 59.1523 15.9876 59.4952 15.916C63.1863 15.1461 65.8655 11.8339 65.8655 8.04032C65.8655 7.73585 65.848 7.42933 65.8136 7.12936C65.7491 6.56677 65.2407 6.16208 64.6782 6.22729C64.1156 6.29183 63.7117 6.80001 63.7761 7.36274C63.8017 7.5856 63.8145 7.81364 63.8145 8.04032C63.8145 10.8679 61.8219 13.3359 59.0763 13.9086C57.7821 14.1786 56.8692 15.2844 56.8564 16.598L56.8355 18.7533C55.4536 19.1919 54.4494 20.4867 54.4494 22.0117C54.4494 23.5393 55.4568 24.8358 56.842 25.2724V28.2629C54.3531 28.7435 52.467 30.9373 52.467 33.5645C52.467 36.1917 54.3531 38.3855 56.842 38.866V41.836H51.8907C50.5534 41.836 49.3064 42.5552 48.6363 43.713L42.6644 54.0354C41.9927 55.1967 41.9927 56.6395 42.6644 57.8009L48.6364 68.1232C49.3062 69.2809 50.5534 70.0002 51.8907 70.0002H63.8441C65.1815 70.0002 66.4285 69.2809 67.0985 68.1232L73.0704 57.8008C73.742 56.6393 73.742 55.1967 73.0703 54.0352ZM57.8674 20.6446C58.6213 20.6446 59.2346 21.2579 59.2346 22.0117C59.2346 22.7656 58.6213 23.3789 57.8674 23.3789C57.1135 23.3789 56.5002 22.7656 56.5002 22.0117C56.5002 21.2579 57.1135 20.6446 57.8674 20.6446ZM54.5178 33.5645C54.5178 31.7174 56.0203 30.2149 57.8674 30.2149C59.7145 30.2149 61.217 31.7174 61.217 33.5645C61.217 35.4116 59.7145 36.9141 57.8674 36.9141C56.0203 36.9141 54.5178 35.4116 54.5178 33.5645Z" fill="#333333"/>
<path d="M51.0212 6.38764C51.5256 6.61787 52.1442 6.39461 52.3769 5.87275C53.4208 3.55072 55.5856 2.05078 57.8928 2.05078H57.8963C59.3613 2.05174 60.8443 2.66998 61.9651 3.74705C62.3737 4.13971 63.0228 4.12631 63.4149 3.71834C63.8073 3.30996 63.7944 2.66096 63.3862 2.26857C61.8874 0.828242 59.8869 0.00136719 57.8976 0C57.8958 0 57.8946 0 57.893 0C54.7798 0 51.8805 1.97477 50.5065 5.03193C50.2742 5.54846 50.5047 6.15535 51.0212 6.38764Z" fill="#333333"/>
<path d="M60.9058 48.2502H54.8283C53.9762 48.2502 53.1823 48.7087 52.7563 49.4465L49.7175 54.7102C49.2914 55.4481 49.2914 56.3649 49.7175 57.1028L52.7563 62.3665C53.1823 63.1043 53.9762 63.5627 54.8283 63.5627H60.9058C61.7579 63.5627 62.5518 63.1043 62.9778 62.3665L66.0167 57.1028C66.4427 56.3649 66.4427 55.4481 66.0167 54.7102L62.9778 49.4465C62.5518 48.7087 61.7579 48.2502 60.9058 48.2502ZM64.2405 56.0774L61.2017 61.3411C61.1409 61.4465 61.0275 61.512 60.9057 61.512H54.8281C54.7063 61.512 54.593 61.4465 54.5321 61.3411L51.4933 56.0774C51.4325 55.972 51.4325 55.841 51.4933 55.7356L54.5321 50.4719C54.593 50.3665 54.7063 50.301 54.8281 50.301H60.9057C61.0275 50.301 61.1409 50.3665 61.2017 50.4719L64.2405 55.7356C64.3014 55.8411 64.3014 55.972 64.2405 56.0774Z" fill="#333333"/>
</g>
<defs>
<filter id="filter0_d_49_109" x="0" y="0" width="78" height="78" filterUnits="userSpaceOnUse" color-interpolation-filters="sRGB">
<feFlood flood-opacity="0" result="BackgroundImageFix"/>
<feColorMatrix in="SourceAlpha" type="matrix" values="0 0 0 0 0 0 0 0 0 0 0 0 0 0 0 0 0 0 127 0" result="hardAlpha"/>
<feOffset dy="4"/>
<feGaussianBlur stdDeviation="2"/>
<feComposite in2="hardAlpha" operator="out"/>
<feColorMatrix type="matrix" values="0 0 0 0 0 0 0 0 0 0 0 0 0 0 0 0 0 0 0.25 0"/>
<feBlend mode="normal" in2="BackgroundImageFix" result="effect1_dropShadow_49_109"/>
<feBlend mode="normal" in="SourceGraphic" in2="effect1_dropShadow_49_109" result="shape"/>
</filter>
<clipPath id="clip0_49_109">
<rect width="70" height="70" fill="white" transform="translate(4)"/>
</clipPath>
</defs>
</svg>
